<svg xmlns="http://www.w3.org/2000/svg" width="242.165" height="240.653" viewBox="0 0 242.165 240.653">
  <path id="Icon_awesome-phone-alt" data-name="Icon awesome-phone-alt" d="M171.714,117.676l-38.666-15.612a8.621,8.621,0,0,0-9.666,2.244l-17.123,19.71C79.385,112.081,57.758,91.7,45.087,66.386L66.008,50.254a7.5,7.5,0,0,0,2.382-9.107L51.819,4.718A8.48,8.48,0,0,0,42.325.2L6.421,8A7.92,7.92,0,0,0,0,15.611C0,99.038,71.773,166.529,160.187,166.529a8.2,8.2,0,0,0,8.078-6.05l8.285-33.826a7.8,7.8,0,0,0-4.837-8.977Z" transform="translate(242.165 129.417) rotate(141)" fill="rgba(102,102,102,0.22)"/>
</svg>
